<svg width="161" height="17" viewBox="0 0 161 17" fill="none" xmlns="http://www.w3.org/2000/svg">
<path d="M28.6182 13H26.957V5.60352H28.6182V13ZM26.8545 3.68262C26.8545 3.42741 26.9342 3.21549 27.0938 3.04688C27.2578 2.87826 27.4902 2.79395 27.791 2.79395C28.0918 2.79395 28.3242 2.87826 28.4883 3.04688C28.6523 3.21549 28.7344 3.42741 28.7344 3.68262C28.7344 3.93327 28.6523 4.1429 28.4883 4.31152C28.3242 4.47559 28.0918 4.55762 27.791 4.55762C27.4902 4.55762 27.2578 4.47559 27.0938 4.31152C26.9342 4.1429 26.8545 3.93327 26.8545 3.68262ZM32.2546 5.60352L32.3025 6.45801C32.8493 5.7972 33.5671 5.4668 34.4558 5.4668C35.9961 5.4668 36.78 6.34863 36.8073 8.1123V13H35.1462V8.20801C35.1462 7.73861 35.0437 7.39225 34.8386 7.16895C34.6381 6.94108 34.3077 6.82715 33.8474 6.82715C33.1775 6.82715 32.6784 7.13021 32.3503 7.73633V13H30.6892V5.60352H32.2546ZM39.3705 13V6.83398H38.2426V5.60352H39.3705V4.92676C39.3705 4.10645 39.5984 3.47298 40.0541 3.02637C40.5099 2.57975 41.1479 2.35645 41.9682 2.35645C42.2599 2.35645 42.5698 2.39746 42.8979 2.47949L42.8569 3.77832C42.6746 3.74186 42.4627 3.72363 42.2211 3.72363C41.4282 3.72363 41.0317 4.13151 41.0317 4.94727V5.60352H42.5356V6.83398H41.0317V13H39.3705ZM43.7179 9.2334C43.7179 8.50879 43.8615 7.8571 44.1486 7.27832C44.4357 6.69499 44.839 6.24837 45.3586 5.93848C45.8781 5.62402 46.4751 5.4668 47.1496 5.4668C48.1476 5.4668 48.9565 5.78809 49.5763 6.43066C50.2007 7.07324 50.5379 7.92546 50.588 8.9873L50.5949 9.37695C50.5949 10.1061 50.4536 10.7578 50.1711 11.332C49.8931 11.9062 49.492 12.3506 48.9679 12.665C48.4484 12.9795 47.8468 13.1367 47.1632 13.1367C46.1196 13.1367 45.2834 12.7904 44.6545 12.0977C44.0301 11.4004 43.7179 10.473 43.7179 9.31543V9.2334ZM45.3791 9.37695C45.3791 10.138 45.5363 10.735 45.8507 11.168C46.1652 11.5964 46.6027 11.8105 47.1632 11.8105C47.7238 11.8105 48.159 11.5918 48.4689 11.1543C48.7834 10.7168 48.9406 10.0765 48.9406 9.2334C48.9406 8.486 48.7788 7.89355 48.4552 7.45605C48.1362 7.01855 47.701 6.7998 47.1496 6.7998C46.6073 6.7998 46.1766 7.01628 45.8576 7.44922C45.5386 7.8776 45.3791 8.52018 45.3791 9.37695ZM63.33 9.45898C63.2753 10.5983 62.995 11.4984 62.4891 12.1592C61.9833 12.8154 61.2974 13.1436 60.4315 13.1436C59.6067 13.1436 59.0552 12.7926 58.7772 12.0908C58.5448 12.4372 58.2736 12.6969 57.9638 12.8701C57.6584 13.0433 57.3371 13.1299 56.9999 13.1299C56.3345 13.1299 55.8287 12.8564 55.4823 12.3096C55.1405 11.7627 55.0106 11.0312 55.0927 10.1152C55.1656 9.3724 55.3456 8.70247 55.6327 8.10547C55.9244 7.50846 56.2912 7.04818 56.7333 6.72461C57.1799 6.39648 57.6539 6.23242 58.1552 6.23242C58.538 6.23242 58.8752 6.28027 59.1669 6.37598C59.4631 6.47168 59.8095 6.66992 60.2059 6.9707L59.8505 10.8193C59.7639 11.7217 60.0236 12.1729 60.6298 12.1729C61.0946 12.1729 61.4751 11.9245 61.7714 11.4277C62.0721 10.9264 62.2362 10.2793 62.2636 9.48633C62.341 7.80469 62.0152 6.51725 61.286 5.62402C60.5614 4.73079 59.4699 4.28418 58.0116 4.28418C57.1184 4.28418 56.3254 4.50749 55.6327 4.9541C54.9445 5.40072 54.3977 6.04785 53.9921 6.89551C53.5865 7.73861 53.3632 8.7002 53.3221 9.78027C53.2675 10.8786 53.3973 11.8265 53.7118 12.624C54.0308 13.417 54.5162 14.0208 55.1679 14.4355C55.8241 14.8503 56.6239 15.0576 57.5673 15.0576C57.9501 15.0576 58.3488 15.012 58.7636 14.9209C59.1828 14.8298 59.5383 14.7067 59.83 14.5518L60.0897 15.4883C59.8117 15.6706 59.4358 15.8164 58.9618 15.9258C58.4924 16.0397 58.0184 16.0967 57.5399 16.0967C56.3824 16.0967 55.3889 15.8506 54.5595 15.3584C53.73 14.8708 53.108 14.1621 52.6932 13.2324C52.2649 12.2708 52.0757 11.1201 52.1259 9.78027C52.1805 8.53158 52.4608 7.41048 52.9667 6.41699C53.4725 5.41895 54.163 4.64421 55.038 4.09277C55.9175 3.54134 56.9179 3.26562 58.0389 3.26562C59.1737 3.26562 60.149 3.51628 60.9647 4.01758C61.785 4.51432 62.398 5.2321 62.8036 6.1709C63.2092 7.10514 63.3846 8.20117 63.33 9.45898ZM56.4325 10.1152C56.3733 10.735 56.4279 11.2067 56.5966 11.5303C56.7652 11.8493 57.0341 12.0088 57.4032 12.0088C57.6493 12.0088 57.8817 11.9017 58.1005 11.6875C58.3192 11.4688 58.497 11.1702 58.6337 10.792L58.9413 7.42188C58.7134 7.33529 58.4924 7.29199 58.2782 7.29199C57.7723 7.29199 57.3599 7.53125 57.0409 8.00977C56.7219 8.48372 56.5191 9.18555 56.4325 10.1152ZM64.7721 9.24707C64.7721 8.10775 65.0364 7.19401 65.565 6.50586C66.0937 5.81315 66.8023 5.4668 67.691 5.4668C68.4749 5.4668 69.1083 5.74023 69.5914 6.28711V2.5H71.2525V13H69.7486L69.6666 12.2344C69.1699 12.8359 68.5068 13.1367 67.6773 13.1367C66.8115 13.1367 66.1096 12.7881 65.5719 12.0908C65.0387 11.3936 64.7721 10.4456 64.7721 9.24707ZM66.4332 9.39062C66.4332 10.1426 66.5768 10.7305 66.8639 11.1543C67.1555 11.5736 67.568 11.7832 68.1012 11.7832C68.7802 11.7832 69.277 11.4801 69.5914 10.874V7.71582C69.2861 7.12337 68.7939 6.82715 68.1148 6.82715C67.5771 6.82715 67.1624 7.04134 66.8707 7.46973C66.579 7.89355 66.4332 8.53385 66.4332 9.39062ZM76.5228 13.1367C75.47 13.1367 74.6155 12.8063 73.9593 12.1455C73.3076 11.4801 72.9818 10.596 72.9818 9.49316V9.28809C72.9818 8.5498 73.123 7.89128 73.4056 7.3125C73.6927 6.72917 74.0937 6.27572 74.6087 5.95215C75.1237 5.62858 75.6979 5.4668 76.3314 5.4668C77.3385 5.4668 78.1155 5.78809 78.6624 6.43066C79.2139 7.07324 79.4896 7.98242 79.4896 9.1582V9.82812H74.6566C74.7067 10.4388 74.9095 10.9219 75.265 11.2773C75.625 11.6328 76.0762 11.8105 76.6185 11.8105C77.3795 11.8105 77.9993 11.5029 78.4779 10.8877L79.3734 11.7422C79.0771 12.1842 78.6807 12.5283 78.1839 12.7744C77.6917 13.016 77.138 13.1367 76.5228 13.1367ZM76.3245 6.7998C75.8688 6.7998 75.4997 6.95931 75.2171 7.27832C74.9391 7.59733 74.7614 8.04167 74.6839 8.61133H77.8489V8.48828C77.8125 7.93229 77.6644 7.51302 77.4046 7.23047C77.1448 6.94336 76.7848 6.7998 76.3245 6.7998ZM83.5772 10.8945L85.1426 5.60352H86.8584L84.295 13H82.8526L80.2686 5.60352H81.9912L83.5772 10.8945ZM92.3269 10.9902C92.3269 10.694 92.2039 10.4684 91.9578 10.3135C91.7162 10.1585 91.3129 10.0218 90.7478 9.90332C90.1827 9.78483 89.711 9.63444 89.3328 9.45215C88.5033 9.05111 88.0886 8.47005 88.0886 7.70898C88.0886 7.07096 88.3575 6.53776 88.8953 6.10938C89.433 5.68099 90.1166 5.4668 90.9461 5.4668C91.8302 5.4668 92.5434 5.68555 93.0857 6.12305C93.6326 6.56055 93.906 7.12793 93.906 7.8252H92.2449C92.2449 7.50618 92.1264 7.24186 91.8894 7.03223C91.6524 6.81803 91.338 6.71094 90.9461 6.71094C90.5815 6.71094 90.283 6.79525 90.0505 6.96387C89.8227 7.13249 89.7088 7.35807 89.7088 7.64062C89.7088 7.89583 89.8158 8.09408 90.03 8.23535C90.2442 8.37663 90.6772 8.52018 91.3289 8.66602C91.9806 8.80729 92.491 8.97819 92.8601 9.17871C93.2338 9.37467 93.5095 9.61165 93.6873 9.88965C93.8696 10.1676 93.9607 10.5049 93.9607 10.9014C93.9607 11.5667 93.685 12.1068 93.1336 12.5215C92.5821 12.9316 91.8598 13.1367 90.9666 13.1367C90.3604 13.1367 89.8204 13.0273 89.3464 12.8086C88.8725 12.5898 88.5033 12.2891 88.239 11.9062C87.9747 11.5234 87.8425 11.111 87.8425 10.6689H89.4558C89.4786 11.0609 89.6267 11.3639 89.9002 11.5781C90.1736 11.7878 90.5359 11.8926 90.9871 11.8926C91.4246 11.8926 91.7573 11.8105 91.9851 11.6465C92.213 11.4779 92.3269 11.2591 92.3269 10.9902ZM97.7749 3.80566V5.60352H99.0805V6.83398H97.7749V10.9629C97.7749 11.2454 97.8296 11.4505 97.9389 11.5781C98.0529 11.7012 98.2534 11.7627 98.5405 11.7627C98.7319 11.7627 98.9256 11.7399 99.1216 11.6943V12.9795C98.7433 13.0843 98.3787 13.1367 98.0278 13.1367C96.7518 13.1367 96.1137 12.4326 96.1137 11.0244V6.83398H94.8969V5.60352H96.1137V3.80566H97.7749ZM105.116 12.2754C104.629 12.8496 103.936 13.1367 103.038 13.1367C102.236 13.1367 101.628 12.902 101.213 12.4326C100.803 11.9632 100.598 11.2842 100.598 10.3955V5.60352H102.259V10.375C102.259 11.3138 102.649 11.7832 103.428 11.7832C104.235 11.7832 104.779 11.4938 105.062 10.915V5.60352H106.723V13H105.157L105.116 12.2754ZM108.384 9.24707C108.384 8.10775 108.648 7.19401 109.177 6.50586C109.705 5.81315 110.414 5.4668 111.303 5.4668C112.087 5.4668 112.72 5.74023 113.203 6.28711V2.5H114.864V13H113.36L113.278 12.2344C112.781 12.8359 112.118 13.1367 111.289 13.1367C110.423 13.1367 109.721 12.7881 109.184 12.0908C108.65 11.3936 108.384 10.4456 108.384 9.24707ZM110.045 9.39062C110.045 10.1426 110.188 10.7305 110.476 11.1543C110.767 11.5736 111.18 11.7832 111.713 11.7832C112.392 11.7832 112.889 11.4801 113.203 10.874V7.71582C112.898 7.12337 112.406 6.82715 111.726 6.82715C111.189 6.82715 110.774 7.04134 110.482 7.46973C110.191 7.89355 110.045 8.53385 110.045 9.39062ZM118.644 13H116.983V5.60352H118.644V13ZM116.881 3.68262C116.881 3.42741 116.96 3.21549 117.12 3.04688C117.284 2.87826 117.516 2.79395 117.817 2.79395C118.118 2.79395 118.35 2.87826 118.514 3.04688C118.678 3.21549 118.76 3.42741 118.76 3.68262C118.76 3.93327 118.678 4.1429 118.514 4.31152C118.35 4.47559 118.118 4.55762 117.817 4.55762C117.516 4.55762 117.284 4.47559 117.12 4.31152C116.96 4.1429 116.881 3.93327 116.881 3.68262ZM120.428 9.2334C120.428 8.50879 120.572 7.8571 120.859 7.27832C121.146 6.69499 121.549 6.24837 122.069 5.93848C122.588 5.62402 123.185 5.4668 123.86 5.4668C124.858 5.4668 125.667 5.78809 126.286 6.43066C126.911 7.07324 127.248 7.92546 127.298 8.9873L127.305 9.37695C127.305 10.1061 127.164 10.7578 126.881 11.332C126.603 11.9062 126.202 12.3506 125.678 12.665C125.159 12.9795 124.557 13.1367 123.873 13.1367C122.83 13.1367 121.994 12.7904 121.365 12.0977C120.74 11.4004 120.428 10.473 120.428 9.31543V9.2334ZM122.089 9.37695C122.089 10.138 122.246 10.735 122.561 11.168C122.875 11.5964 123.313 11.8105 123.873 11.8105C124.434 11.8105 124.869 11.5918 125.179 11.1543C125.494 10.7168 125.651 10.0765 125.651 9.2334C125.651 8.486 125.489 7.89355 125.165 7.45605C124.846 7.01855 124.411 6.7998 123.86 6.7998C123.317 6.7998 122.887 7.01628 122.568 7.44922C122.249 7.8776 122.089 8.52018 122.089 9.37695ZM130.025 11.25C130.335 11.25 130.575 11.3389 130.743 11.5166C130.912 11.6898 130.996 11.9085 130.996 12.1729C130.996 12.4326 130.912 12.6491 130.743 12.8223C130.575 12.9909 130.335 13.0752 130.025 13.0752C129.729 13.0752 129.495 12.9909 129.321 12.8223C129.148 12.6536 129.062 12.4372 129.062 12.1729C129.062 11.9085 129.146 11.6898 129.315 11.5166C129.483 11.3389 129.72 11.25 130.025 11.25ZM136.219 11.8105C136.633 11.8105 136.977 11.6898 137.251 11.4482C137.524 11.2067 137.67 10.9082 137.688 10.5527H139.254C139.235 11.013 139.092 11.4437 138.823 11.8447C138.554 12.2412 138.19 12.5557 137.729 12.7881C137.269 13.0205 136.772 13.1367 136.239 13.1367C135.205 13.1367 134.384 12.8018 133.778 12.1318C133.172 11.4619 132.869 10.5368 132.869 9.35645V9.18555C132.869 8.0599 133.17 7.15983 133.771 6.48535C134.373 5.80632 135.193 5.4668 136.232 5.4668C137.112 5.4668 137.827 5.72428 138.379 6.23926C138.935 6.74967 139.226 7.42188 139.254 8.25586H137.688C137.67 7.83203 137.524 7.4834 137.251 7.20996C136.982 6.93652 136.638 6.7998 136.219 6.7998C135.681 6.7998 135.266 6.99577 134.974 7.3877C134.683 7.77507 134.535 8.36523 134.53 9.1582V9.4248C134.53 10.2269 134.674 10.8262 134.961 11.2227C135.252 11.6146 135.672 11.8105 136.219 11.8105ZM140.477 9.2334C140.477 8.50879 140.621 7.8571 140.908 7.27832C141.195 6.69499 141.598 6.24837 142.118 5.93848C142.637 5.62402 143.234 5.4668 143.909 5.4668C144.907 5.4668 145.716 5.78809 146.335 6.43066C146.96 7.07324 147.297 7.92546 147.347 8.9873L147.354 9.37695C147.354 10.1061 147.213 10.7578 146.93 11.332C146.652 11.9062 146.251 12.3506 145.727 12.665C145.208 12.9795 144.606 13.1367 143.922 13.1367C142.879 13.1367 142.043 12.7904 141.414 12.0977C140.789 11.4004 140.477 10.473 140.477 9.31543V9.2334ZM142.138 9.37695C142.138 10.138 142.295 10.735 142.61 11.168C142.924 11.5964 143.362 11.8105 143.922 11.8105C144.483 11.8105 144.918 11.5918 145.228 11.1543C145.543 10.7168 145.7 10.0765 145.7 9.2334C145.7 8.486 145.538 7.89355 145.214 7.45605C144.895 7.01855 144.46 6.7998 143.909 6.7998C143.366 6.7998 142.936 7.01628 142.617 7.44922C142.298 7.8776 142.138 8.52018 142.138 9.37695ZM150.601 5.60352L150.649 6.37598C151.168 5.76986 151.879 5.4668 152.781 5.4668C153.77 5.4668 154.447 5.84505 154.812 6.60156C155.35 5.84505 156.106 5.4668 157.081 5.4668C157.897 5.4668 158.503 5.69238 158.9 6.14355C159.301 6.59473 159.506 7.26009 159.515 8.13965V13H157.854V8.1875C157.854 7.7181 157.751 7.37402 157.546 7.15527C157.341 6.93652 157.002 6.82715 156.528 6.82715C156.149 6.82715 155.839 6.92969 155.598 7.13477C155.361 7.33529 155.195 7.59961 155.099 7.92773L155.106 13H153.445V8.13281C153.422 7.26237 152.977 6.82715 152.112 6.82715C151.446 6.82715 150.975 7.09831 150.697 7.64062V13H149.035V5.60352H150.601Z" fill="#757575"/>
<path d="M14.5 2H1.50001C0.672854 2 0 2.62811 0 3.40026V11.8017C0 12.5739 0.672854 13.202 1.50001 13.202H14.5C15.3271 13.202 16 12.5739 16 11.8017V3.40026C16 2.62811 15.3271 2 14.5 2ZM14.5 2.93349C14.5679 2.93349 14.6325 2.94665 14.6916 2.96963L8 8.38361L1.30833 2.96963C1.36742 2.94668 1.43204 2.93349 1.49998 2.93349H14.5ZM14.5 12.2685H1.50001C1.22414 12.2685 0.999996 12.0593 0.999996 11.8017V3.95587L7.67236 9.35402C7.76661 9.43013 7.8833 9.46798 8 9.46798C8.1167 9.46798 8.23339 9.43016 8.32764 9.35402L15 3.95587V11.8017C15 12.0593 14.7759 12.2685 14.5 12.2685Z" fill="#757575"/>
<path d="M28.6182 13H26.957V5.60352H28.6182V13ZM26.8545 3.68262C26.8545 3.42741 26.9342 3.21549 27.0938 3.04688C27.2578 2.87826 27.4902 2.79395 27.791 2.79395C28.0918 2.79395 28.3242 2.87826 28.4883 3.04688C28.6523 3.21549 28.7344 3.42741 28.7344 3.68262C28.7344 3.93327 28.6523 4.1429 28.4883 4.31152C28.3242 4.47559 28.0918 4.55762 27.791 4.55762C27.4902 4.55762 27.2578 4.47559 27.0938 4.31152C26.9342 4.1429 26.8545 3.93327 26.8545 3.68262ZM32.2546 5.60352L32.3025 6.45801C32.8493 5.7972 33.5671 5.4668 34.4558 5.4668C35.9961 5.4668 36.78 6.34863 36.8073 8.1123V13H35.1462V8.20801C35.1462 7.73861 35.0437 7.39225 34.8386 7.16895C34.6381 6.94108 34.3077 6.82715 33.8474 6.82715C33.1775 6.82715 32.6784 7.13021 32.3503 7.73633V13H30.6892V5.60352H32.2546ZM39.3705 13V6.83398H38.2426V5.60352H39.3705V4.92676C39.3705 4.10645 39.5984 3.47298 40.0541 3.02637C40.5099 2.57975 41.1479 2.35645 41.9682 2.35645C42.2599 2.35645 42.5698 2.39746 42.8979 2.47949L42.8569 3.77832C42.6746 3.74186 42.4627 3.72363 42.2211 3.72363C41.4282 3.72363 41.0317 4.13151 41.0317 4.94727V5.60352H42.5356V6.83398H41.0317V13H39.3705ZM43.7179 9.2334C43.7179 8.50879 43.8615 7.8571 44.1486 7.27832C44.4357 6.69499 44.839 6.24837 45.3586 5.93848C45.8781 5.62402 46.4751 5.4668 47.1496 5.4668C48.1476 5.4668 48.9565 5.78809 49.5763 6.43066C50.2007 7.07324 50.5379 7.92546 50.588 8.9873L50.5949 9.37695C50.5949 10.1061 50.4536 10.7578 50.1711 11.332C49.8931 11.9062 49.492 12.3506 48.9679 12.665C48.4484 12.9795 47.8468 13.1367 47.1632 13.1367C46.1196 13.1367 45.2834 12.7904 44.6545 12.0977C44.0301 11.4004 43.7179 10.473 43.7179 9.31543V9.2334ZM45.3791 9.37695C45.3791 10.138 45.5363 10.735 45.8507 11.168C46.1652 11.5964 46.6027 11.8105 47.1632 11.8105C47.7238 11.8105 48.159 11.5918 48.4689 11.1543C48.7834 10.7168 48.9406 10.0765 48.9406 9.2334C48.9406 8.486 48.7788 7.89355 48.4552 7.45605C48.1362 7.01855 47.701 6.7998 47.1496 6.7998C46.6073 6.7998 46.1766 7.01628 45.8576 7.44922C45.5386 7.8776 45.3791 8.52018 45.3791 9.37695ZM63.33 9.45898C63.2753 10.5983 62.995 11.4984 62.4891 12.1592C61.9833 12.8154 61.2974 13.1436 60.4315 13.1436C59.6067 13.1436 59.0552 12.7926 58.7772 12.0908C58.5448 12.4372 58.2736 12.6969 57.9638 12.8701C57.6584 13.0433 57.3371 13.1299 56.9999 13.1299C56.3345 13.1299 55.8287 12.8564 55.4823 12.3096C55.1405 11.7627 55.0106 11.0312 55.0927 10.1152C55.1656 9.3724 55.3456 8.70247 55.6327 8.10547C55.9244 7.50846 56.2912 7.04818 56.7333 6.72461C57.1799 6.39648 57.6539 6.23242 58.1552 6.23242C58.538 6.23242 58.8752 6.28027 59.1669 6.37598C59.4631 6.47168 59.8095 6.66992 60.2059 6.9707L59.8505 10.8193C59.7639 11.7217 60.0236 12.1729 60.6298 12.1729C61.0946 12.1729 61.4751 11.9245 61.7714 11.4277C62.0721 10.9264 62.2362 10.2793 62.2636 9.48633C62.341 7.80469 62.0152 6.51725 61.286 5.62402C60.5614 4.73079 59.4699 4.28418 58.0116 4.28418C57.1184 4.28418 56.3254 4.50749 55.6327 4.9541C54.9445 5.40072 54.3977 6.04785 53.9921 6.89551C53.5865 7.73861 53.3632 8.7002 53.3221 9.78027C53.2675 10.8786 53.3973 11.8265 53.7118 12.624C54.0308 13.417 54.5162 14.0208 55.1679 14.4355C55.8241 14.8503 56.6239 15.0576 57.5673 15.0576C57.9501 15.0576 58.3488 15.012 58.7636 14.9209C59.1828 14.8298 59.5383 14.7067 59.83 14.5518L60.0897 15.4883C59.8117 15.6706 59.4358 15.8164 58.9618 15.9258C58.4924 16.0397 58.0184 16.0967 57.5399 16.0967C56.3824 16.0967 55.3889 15.8506 54.5595 15.3584C53.73 14.8708 53.108 14.1621 52.6932 13.2324C52.2649 12.2708 52.0757 11.1201 52.1259 9.78027C52.1805 8.53158 52.4608 7.41048 52.9667 6.41699C53.4725 5.41895 54.163 4.64421 55.038 4.09277C55.9175 3.54134 56.9179 3.26562 58.0389 3.26562C59.1737 3.26562 60.149 3.51628 60.9647 4.01758C61.785 4.51432 62.398 5.2321 62.8036 6.1709C63.2092 7.10514 63.3846 8.20117 63.33 9.45898ZM56.4325 10.1152C56.3733 10.735 56.4279 11.2067 56.5966 11.5303C56.7652 11.8493 57.0341 12.0088 57.4032 12.0088C57.6493 12.0088 57.8817 11.9017 58.1005 11.6875C58.3192 11.4688 58.497 11.1702 58.6337 10.792L58.9413 7.42188C58.7134 7.33529 58.4924 7.29199 58.2782 7.29199C57.7723 7.29199 57.3599 7.53125 57.0409 8.00977C56.7219 8.48372 56.5191 9.18555 56.4325 10.1152ZM64.7721 9.24707C64.7721 8.10775 65.0364 7.19401 65.565 6.50586C66.0937 5.81315 66.8023 5.4668 67.691 5.4668C68.4749 5.4668 69.1083 5.74023 69.5914 6.28711V2.5H71.2525V13H69.7486L69.6666 12.2344C69.1699 12.8359 68.5068 13.1367 67.6773 13.1367C66.8115 13.1367 66.1096 12.7881 65.5719 12.0908C65.0387 11.3936 64.7721 10.4456 64.7721 9.24707ZM66.4332 9.39062C66.4332 10.1426 66.5768 10.7305 66.8639 11.1543C67.1555 11.5736 67.568 11.7832 68.1012 11.7832C68.7802 11.7832 69.277 11.4801 69.5914 10.874V7.71582C69.2861 7.12337 68.7939 6.82715 68.1148 6.82715C67.5771 6.82715 67.1624 7.04134 66.8707 7.46973C66.579 7.89355 66.4332 8.53385 66.4332 9.39062ZM76.5228 13.1367C75.47 13.1367 74.6155 12.8063 73.9593 12.1455C73.3076 11.4801 72.9818 10.596 72.9818 9.49316V9.28809C72.9818 8.5498 73.123 7.89128 73.4056 7.3125C73.6927 6.72917 74.0937 6.27572 74.6087 5.95215C75.1237 5.62858 75.6979 5.4668 76.3314 5.4668C77.3385 5.4668 78.1155 5.78809 78.6624 6.43066C79.2139 7.07324 79.4896 7.98242 79.4896 9.1582V9.82812H74.6566C74.7067 10.4388 74.9095 10.9219 75.265 11.2773C75.625 11.6328 76.0762 11.8105 76.6185 11.8105C77.3795 11.8105 77.9993 11.5029 78.4779 10.8877L79.3734 11.7422C79.0771 12.1842 78.6807 12.5283 78.1839 12.7744C77.6917 13.016 77.138 13.1367 76.5228 13.1367ZM76.3245 6.7998C75.8688 6.7998 75.4997 6.95931 75.2171 7.27832C74.9391 7.59733 74.7614 8.04167 74.6839 8.61133H77.8489V8.48828C77.8125 7.93229 77.6644 7.51302 77.4046 7.23047C77.1448 6.94336 76.7848 6.7998 76.3245 6.7998ZM83.5772 10.8945L85.1426 5.60352H86.8584L84.295 13H82.8526L80.2686 5.60352H81.9912L83.5772 10.8945ZM92.3269 10.9902C92.3269 10.694 92.2039 10.4684 91.9578 10.3135C91.7162 10.1585 91.3129 10.0218 90.7478 9.90332C90.1827 9.78483 89.711 9.63444 89.3328 9.45215C88.5033 9.05111 88.0886 8.47005 88.0886 7.70898C88.0886 7.07096 88.3575 6.53776 88.8953 6.10938C89.433 5.68099 90.1166 5.4668 90.9461 5.4668C91.8302 5.4668 92.5434 5.68555 93.0857 6.12305C93.6326 6.56055 93.906 7.12793 93.906 7.8252H92.2449C92.2449 7.50618 92.1264 7.24186 91.8894 7.03223C91.6524 6.81803 91.338 6.71094 90.9461 6.71094C90.5815 6.71094 90.283 6.79525 90.0505 6.96387C89.8227 7.13249 89.7088 7.35807 89.7088 7.64062C89.7088 7.89583 89.8158 8.09408 90.03 8.23535C90.2442 8.37663 90.6772 8.52018 91.3289 8.66602C91.9806 8.80729 92.491 8.97819 92.8601 9.17871C93.2338 9.37467 93.5095 9.61165 93.6873 9.88965C93.8696 10.1676 93.9607 10.5049 93.9607 10.9014C93.9607 11.5667 93.685 12.1068 93.1336 12.5215C92.5821 12.9316 91.8598 13.1367 90.9666 13.1367C90.3604 13.1367 89.8204 13.0273 89.3464 12.8086C88.8725 12.5898 88.5033 12.2891 88.239 11.9062C87.9747 11.5234 87.8425 11.111 87.8425 10.6689H89.4558C89.4786 11.0609 89.6267 11.3639 89.9002 11.5781C90.1736 11.7878 90.5359 11.8926 90.9871 11.8926C91.4246 11.8926 91.7573 11.8105 91.9851 11.6465C92.213 11.4779 92.3269 11.2591 92.3269 10.9902ZM97.7749 3.80566V5.60352H99.0805V6.83398H97.7749V10.9629C97.7749 11.2454 97.8296 11.4505 97.9389 11.5781C98.0529 11.7012 98.2534 11.7627 98.5405 11.7627C98.7319 11.7627 98.9256 11.7399 99.1216 11.6943V12.9795C98.7433 13.0843 98.3787 13.1367 98.0278 13.1367C96.7518 13.1367 96.1137 12.4326 96.1137 11.0244V6.83398H94.8969V5.60352H96.1137V3.80566H97.7749ZM105.116 12.2754C104.629 12.8496 103.936 13.1367 103.038 13.1367C102.236 13.1367 101.628 12.902 101.213 12.4326C100.803 11.9632 100.598 11.2842 100.598 10.3955V5.60352H102.259V10.375C102.259 11.3138 102.649 11.7832 103.428 11.7832C104.235 11.7832 104.779 11.4938 105.062 10.915V5.60352H106.723V13H105.157L105.116 12.2754ZM108.384 9.24707C108.384 8.10775 108.648 7.19401 109.177 6.50586C109.705 5.81315 110.414 5.4668 111.303 5.4668C112.087 5.4668 112.72 5.74023 113.203 6.28711V2.5H114.864V13H113.36L113.278 12.2344C112.781 12.8359 112.118 13.1367 111.289 13.1367C110.423 13.1367 109.721 12.7881 109.184 12.0908C108.65 11.3936 108.384 10.4456 108.384 9.24707ZM110.045 9.39062C110.045 10.1426 110.188 10.7305 110.476 11.1543C110.767 11.5736 111.18 11.7832 111.713 11.7832C112.392 11.7832 112.889 11.4801 113.203 10.874V7.71582C112.898 7.12337 112.406 6.82715 111.726 6.82715C111.189 6.82715 110.774 7.04134 110.482 7.46973C110.191 7.89355 110.045 8.53385 110.045 9.39062ZM118.644 13H116.983V5.60352H118.644V13ZM116.881 3.68262C116.881 3.42741 116.96 3.21549 117.12 3.04688C117.284 2.87826 117.516 2.79395 117.817 2.79395C118.118 2.79395 118.35 2.87826 118.514 3.04688C118.678 3.21549 118.76 3.42741 118.76 3.68262C118.76 3.93327 118.678 4.1429 118.514 4.31152C118.35 4.47559 118.118 4.55762 117.817 4.55762C117.516 4.55762 117.284 4.47559 117.12 4.31152C116.96 4.1429 116.881 3.93327 116.881 3.68262ZM120.428 9.2334C120.428 8.50879 120.572 7.8571 120.859 7.27832C121.146 6.69499 121.549 6.24837 122.069 5.93848C122.588 5.62402 123.185 5.4668 123.86 5.4668C124.858 5.4668 125.667 5.78809 126.286 6.43066C126.911 7.07324 127.248 7.92546 127.298 8.9873L127.305 9.37695C127.305 10.1061 127.164 10.7578 126.881 11.332C126.603 11.9062 126.202 12.3506 125.678 12.665C125.159 12.9795 124.557 13.1367 123.873 13.1367C122.83 13.1367 121.994 12.7904 121.365 12.0977C120.74 11.4004 120.428 10.473 120.428 9.31543V9.2334ZM122.089 9.37695C122.089 10.138 122.246 10.735 122.561 11.168C122.875 11.5964 123.313 11.8105 123.873 11.8105C124.434 11.8105 124.869 11.5918 125.179 11.1543C125.494 10.7168 125.651 10.0765 125.651 9.2334C125.651 8.486 125.489 7.89355 125.165 7.45605C124.846 7.01855 124.411 6.7998 123.86 6.7998C123.317 6.7998 122.887 7.01628 122.568 7.44922C122.249 7.8776 122.089 8.52018 122.089 9.37695ZM130.025 11.25C130.335 11.25 130.575 11.3389 130.743 11.5166C130.912 11.6898 130.996 11.9085 130.996 12.1729C130.996 12.4326 130.912 12.6491 130.743 12.8223C130.575 12.9909 130.335 13.0752 130.025 13.0752C129.729 13.0752 129.495 12.9909 129.321 12.8223C129.148 12.6536 129.062 12.4372 129.062 12.1729C129.062 11.9085 129.146 11.6898 129.315 11.5166C129.483 11.3389 129.72 11.25 130.025 11.25ZM136.219 11.8105C136.633 11.8105 136.977 11.6898 137.251 11.4482C137.524 11.2067 137.67 10.9082 137.688 10.5527H139.254C139.235 11.013 139.092 11.4437 138.823 11.8447C138.554 12.2412 138.19 12.5557 137.729 12.7881C137.269 13.0205 136.772 13.1367 136.239 13.1367C135.205 13.1367 134.384 12.8018 133.778 12.1318C133.172 11.4619 132.869 10.5368 132.869 9.35645V9.18555C132.869 8.0599 133.17 7.15983 133.771 6.48535C134.373 5.80632 135.193 5.4668 136.232 5.4668C137.112 5.4668 137.827 5.72428 138.379 6.23926C138.935 6.74967 139.226 7.42188 139.254 8.25586H137.688C137.67 7.83203 137.524 7.4834 137.251 7.20996C136.982 6.93652 136.638 6.7998 136.219 6.7998C135.681 6.7998 135.266 6.99577 134.974 7.3877C134.683 7.77507 134.535 8.36523 134.53 9.1582V9.4248C134.53 10.2269 134.674 10.8262 134.961 11.2227C135.252 11.6146 135.672 11.8105 136.219 11.8105ZM140.477 9.2334C140.477 8.50879 140.621 7.8571 140.908 7.27832C141.195 6.69499 141.598 6.24837 142.118 5.93848C142.637 5.62402 143.234 5.4668 143.909 5.4668C144.907 5.4668 145.716 5.78809 146.335 6.43066C146.96 7.07324 147.297 7.92546 147.347 8.9873L147.354 9.37695C147.354 10.1061 147.213 10.7578 146.93 11.332C146.652 11.9062 146.251 12.3506 145.727 12.665C145.208 12.9795 144.606 13.1367 143.922 13.1367C142.879 13.1367 142.043 12.7904 141.414 12.0977C140.789 11.4004 140.477 10.473 140.477 9.31543V9.2334ZM142.138 9.37695C142.138 10.138 142.295 10.735 142.61 11.168C142.924 11.5964 143.362 11.8105 143.922 11.8105C144.483 11.8105 144.918 11.5918 145.228 11.1543C145.543 10.7168 145.7 10.0765 145.7 9.2334C145.7 8.486 145.538 7.89355 145.214 7.45605C144.895 7.01855 144.46 6.7998 143.909 6.7998C143.366 6.7998 142.936 7.01628 142.617 7.44922C142.298 7.8776 142.138 8.52018 142.138 9.37695ZM150.601 5.60352L150.649 6.37598C151.168 5.76986 151.879 5.4668 152.781 5.4668C153.77 5.4668 154.447 5.84505 154.812 6.60156C155.35 5.84505 156.106 5.4668 157.081 5.4668C157.897 5.4668 158.503 5.69238 158.9 6.14355C159.301 6.59473 159.506 7.26009 159.515 8.13965V13H157.854V8.1875C157.854 7.7181 157.751 7.37402 157.546 7.15527C157.341 6.93652 157.002 6.82715 156.528 6.82715C156.149 6.82715 155.839 6.92969 155.598 7.13477C155.361 7.33529 155.195 7.59961 155.099 7.92773L155.106 13H153.445V8.13281C153.422 7.26237 152.977 6.82715 152.112 6.82715C151.446 6.82715 150.975 7.09831 150.697 7.64062V13H149.035V5.60352H150.601Z" fill="#2196F3"/>
<path d="M14.5 2H1.50001C0.672854 2 0 2.62811 0 3.40026V11.8017C0 12.5739 0.672854 13.202 1.50001 13.202H14.5C15.3271 13.202 16 12.5739 16 11.8017V3.40026C16 2.62811 15.3271 2 14.5 2ZM14.5 2.93349C14.5679 2.93349 14.6325 2.94665 14.6916 2.96963L8 8.38361L1.30833 2.96963C1.36742 2.94668 1.43204 2.93349 1.49998 2.93349H14.5ZM14.5 12.2685H1.50001C1.22414 12.2685 0.999996 12.0593 0.999996 11.8017V3.95587L7.67236 9.35402C7.76661 9.43013 7.8833 9.46798 8 9.46798C8.1167 9.46798 8.23339 9.43016 8.32764 9.35402L15 3.95587V11.8017C15 12.0593 14.7759 12.2685 14.5 12.2685Z" fill="#2196F3"/>
</svg>
