<svg aria-hidden="true" style="position:absolute;width:0;height:0" xmlns="http://www.w3.org/2000/svg" overflow="hidden"><defs><symbol id="client1" viewBox="0 0 60 32"><path fill="var(--color1, #afb1b8)" d="M24.533 7.111l2.598 2.46h7.248v6.861l2.598 2.46V7.111H24.533z"/><path fill="var(--color1, #afb1b8)" d="M22.4 9.467v11.444h12.089v-4.549L27.208 9.47 22.4 9.467zm9.786 9.771h-7.873v-7.697h.556v7.176h7.317v.521zM25.881 23.034l.291-.599h.243l-.424.799v.465h-.22v-.465l-.424-.799h.244l.291.599zm1.249.371h-.49l-.102.294h-.228l.477-1.264h.197l.478 1.264h-.229l-.103-.294zm-.428-.177h.366l-.183-.524-.183.524zm1.293.13c0-.058.016-.112.048-.161s.095-.107.188-.174c-.049-.062-.084-.115-.103-.158s-.029-.085-.029-.126c0-.099.03-.177.09-.234s.141-.087.243-.087c.092 0 .167.027.226.082s.089.121.089.201c0 .053-.013.101-.04.146s-.07.088-.131.132l-.086.063.244.288a.508.508 0 0 0 .053-.232h.183a.632.632 0 0 1-.109.383l.186.22h-.245l-.071-.084c-.09.068-.198.102-.323.102s-.225-.033-.3-.099a.331.331 0 0 1-.112-.26zm.418.19a.326.326 0 0 0 .2-.071l-.276-.326-.027.019c-.069.053-.104.113-.104.181 0 .058.019.106.056.142s.088.055.151.055zm-.116-.814c0 .049.03.11.089.183l.096-.066.027-.022a.157.157 0 0 0 .054-.122c0-.033-.012-.061-.037-.084s-.056-.036-.095-.036c-.041 0-.074.014-.098.042s-.036.063-.036.105zm2.296.554c-.013.135-.063.24-.149.316s-.202.113-.346.113a.46.46 0 0 1-.444-.275.733.733 0 0 1-.065-.306v-.118c0-.119.021-.224.063-.315a.478.478 0 0 1 .455-.284c.14 0 .252.038.337.114s.135.183.148.321h-.219c-.01-.091-.037-.156-.08-.196s-.104-.061-.187-.061c-.095 0-.169.035-.22.105s-.077.172-.078.306v.112c0 .137.024.241.073.313s.121.108.215.108c.086 0 .151-.019.194-.058s.071-.103.082-.194h.219zm1.206-.188c0 .124-.021.233-.064.326a.486.486 0 0 1-.458.29c-.102 0-.194-.025-.274-.075s-.142-.122-.186-.214a.768.768 0 0 1-.066-.32v-.071c0-.123.022-.232.065-.326a.492.492 0 0 1 .459-.292.5.5 0 0 1 .273.075c.08.049.142.12.185.213s.065.201.066.324v.07zm-.22-.066c0-.14-.027-.247-.08-.322s-.128-.112-.225-.112c-.095 0-.169.037-.223.112s-.08.179-.082.315v.073c0 .139.027.246.081.322s.13.114.226.114c.097 0 .172-.037.224-.111s.079-.182.079-.325v-.066z"/></symbol><symbol id="client2" viewBox="0 0 60 32"><path fill="var(--color1, #afb1b8)" d="M29.147 7.799h.049c.09 0 .187.009.283.017.424.03.845.093 1.259.19V6.988a7.506 7.506 0 0 0-1.3-.207 9.488 9.488 0 0 0-.525-.025h-.152c-.88.003-1.756.116-2.608.336-.971.242-1.902.621-2.768 1.126v10.097a11.224 11.224 0 0 1 2.638-1.028 11.508 11.508 0 0 1 2.214-.34h.03c.125-.006.25-.01.379-.011v-1.034c-.971.012-1.937.141-2.878.382-.348.09-.684.188-1 .297l-.36.122V8.831l.154-.074a10.057 10.057 0 0 1 3.771-.954c.143-.007.287-.011.428-.011h.162c.075.002.149.004.224.008z"/><path fill="var(--color1, #afb1b8)" d="M31.684 8.865a9.303 9.303 0 0 1-1.505-.122 8.306 8.306 0 0 1-.47-.095v9.981c.647.16 1.312.239 1.979.233a10.67 10.67 0 0 0 2.608-.335 10.55 10.55 0 0 0 2.768-1.126V7.484c-.833.452-1.719.798-2.637 1.029-.896.23-1.817.348-2.742.352zm3.991.173l.36-.121v7.875l-.154.074a9.849 9.849 0 0 1-1.84.661 9.59 9.59 0 0 1-2.354.305 8.1 8.1 0 0 1-.702-.03l-.246-.022V9.682l.287.019c.209.014.425.02.659.02a12.206 12.206 0 0 0 2.989-.383c.335-.089.669-.188 1-.299zM24.084 21.764a.53.53 0 0 0-.4-.162.607.607 0 0 0-.231.043.515.515 0 0 0-.296.299.588.588 0 0 0-.041.223v1.349a.643.643 0 0 0 .053.277.482.482 0 0 0 .32.277.762.762 0 0 0 .201.028.56.56 0 0 0 .516-.353.53.53 0 0 0 .043-.215v-.151h-.353v.12a.307.307 0 0 1-.021.12.221.221 0 0 1-.051.076.268.268 0 0 1-.148.052.182.182 0 0 1-.165-.073.319.319 0 0 1-.047-.181v-1.258a.44.44 0 0 1 .043-.202c.018-.028.044-.051.075-.066s.064-.02.098-.016c.03-.001.061.005.088.018s.051.033.069.057c.039.052.06.116.058.181v.117h.349v-.137a.633.633 0 0 0-.161-.426zM26.179 21.749a.626.626 0 0 0-.401-.148.6.6 0 0 0-.396.148.56.56 0 0 0-.137.189.617.617 0 0 0-.051.261v1.294a.636.636 0 0 0 .051.265.53.53 0 0 0 .137.181.55.55 0 0 0 .186.114.604.604 0 0 0 .611-.114.542.542 0 0 0 .133-.181.617.617 0 0 0 .051-.265v-1.294a.584.584 0 0 0-.184-.45zm-.165 1.744a.236.236 0 0 1-.07.188.258.258 0 0 1-.332 0 .236.236 0 0 1-.07-.188v-1.294a.238.238 0 0 1 .07-.188.258.258 0 0 1 .332 0 .236.236 0 0 1 .07.188v1.294zM28.931 24.071v-2.449h-.339l-.445 1.297h-.006l-.449-1.297h-.335v2.449h.35v-1.49h.006l.343 1.053h.174l.345-1.053h.006v1.49h.35zM30.918 21.793a.498.498 0 0 0-.198-.134.783.783 0 0 0-.254-.038h-.52v2.449h.349v-.957h.18a.638.638 0 0 0 .315-.067.522.522 0 0 0 .192-.187.586.586 0 0 0 .08-.213c.014-.092.02-.185.019-.278a1.42 1.42 0 0 0-.034-.35.519.519 0 0 0-.129-.225zm-.179.747a.336.336 0 0 1-.032.128.197.197 0 0 1-.09.086.36.36 0 0 1-.165.031h-.159v-.833h.18a.327.327 0 0 1 .157.031.199.199 0 0 1 .082.09.375.375 0 0 1 .031.137v.163c0 .057.004.116 0 .168h-.004zM32.572 21.622h-.286l-.54 2.449h.349l.103-.526h.476l.103.526h.349l-.553-2.449zm-.322 1.589l.172-.888h.006l.171.888h-.349zM34.827 23.097h-.006l-.527-1.476h-.335v2.449h.349v-1.473h.007l.533 1.473h.328v-2.449h-.349v1.476zM36.959 21.622l-.281.974h-.007l-.281-.974h-.37l.479 1.414v1.035h.349v-1.035l.479-1.414h-.369zM23.111 24.762h.168v.472h.114v-.472h.167v-.097h-.45v.097zM24.525 24.666l-.22.569h.121l.047-.129h.227l.049.129h.124l-.226-.569h-.121zm-.018.343l.077-.211.077.211h-.155zM25.923 25.025h.131v.073a.214.214 0 0 1-.135.048c-.023.001-.046-.003-.067-.012s-.039-.024-.054-.042a.237.237 0 0 1-.042-.148c0-.127.055-.19.164-.19.029-.003.057.005.081.021s.041.041.048.069l.112-.022c-.024-.111-.104-.167-.241-.167a.287.287 0 0 0-.199.073.275.275 0 0 0-.082.218.31.31 0 0 0 .073.213c.028.029.062.051.099.065s.077.02.117.018a.342.342 0 0 0 .241-.09v-.224h-.246v.096zM27.35 24.666h-.115v.569h.398v-.097h-.283v-.472zM28.557 24.666h-.115v.569h.115v-.569zM29.737 25.046l-.233-.38h-.112v.569h.107v-.372l.228.372h.114v-.569h-.105v.38zM30.804 24.984h.283v-.097h-.283v-.125h.305v-.097h-.42v.569h.432v-.097h-.317v-.154zM33.391 24.89h-.224v-.224h-.114v.569h.114v-.249h.224v.249h.114v-.569h-.114v.224zM34.464 24.984h.284v-.097h-.284v-.125h.306v-.097h-.42v.569h.431v-.097h-.317v-.154zM35.919 24.984c.099-.015.149-.068.149-.158.003-.024-.001-.049-.01-.071s-.026-.041-.045-.056a.32.32 0 0 0-.166-.033h-.241v.569h.114v-.238h.022a.143.143 0 0 1 .071.013c.017.01.031.025.041.042l.124.181h.137l-.069-.111a.404.404 0 0 0-.126-.137zm-.115-.079h-.085v-.143h.09a.285.285 0 0 1 .116.014c.009.007.015.016.019.027s.006.021.006.032a.075.075 0 0 1-.031.057.327.327 0 0 1-.116.014zM37.017 24.984h.283v-.097h-.283v-.125h.306v-.097h-.421v.569h.432v-.097h-.317v-.154z"/></symbol><symbol id="client3" viewBox="0 0 60 32"><path fill="var(--color1, #afb1b8)" d="M25.367 23.394c.005 0 .011.001.015.003s.009.005.013.009l.073.077a.604.604 0 0 1-.206.146.727.727 0 0 1-.292.052.711.711 0 0 1-.274-.049.592.592 0 0 1-.341-.351.773.773 0 0 1-.047-.273.739.739 0 0 1 .05-.274.642.642 0 0 1 .142-.213.654.654 0 0 1 .22-.139.799.799 0 0 1 .283-.049.704.704 0 0 1 .262.044c.072.03.139.072.197.123l-.061.082a.046.046 0 0 1-.016.015c-.007.005-.016.007-.025.006s-.019-.004-.027-.009l-.033-.022-.046-.028a.597.597 0 0 0-.253-.058.537.537 0 0 0-.203.037.454.454 0 0 0-.262.267.592.592 0 0 0-.037.216.636.636 0 0 0 .037.22c.022.06.057.116.102.163a.414.414 0 0 0 .152.101c.06.024.124.035.188.035a.702.702 0 0 0 .112-.007.42.42 0 0 0 .241-.112.05.05 0 0 1 .035-.014zM27.48 23.008a.742.742 0 0 1-.049.271c-.03.079-.077.15-.138.21s-.135.107-.216.138a.817.817 0 0 1-.556 0 .627.627 0 0 1-.354-.352.77.77 0 0 1 0-.543.623.623 0 0 1 .139-.213.627.627 0 0 1 .215-.133.805.805 0 0 1 .556 0 .609.609 0 0 1 .354.349.71.71 0 0 1 .049.273zm-.192 0a.623.623 0 0 0-.035-.218.43.43 0 0 0-.253-.266.585.585 0 0 0-.404 0 .43.43 0 0 0-.254.266.692.692 0 0 0 0 .436.45.45 0 0 0 .099.163.44.44 0 0 0 .155.102c.13.046.274.046.404 0a.427.427 0 0 0 .253-.265.623.623 0 0 0 .035-.218zM28.921 23.237l.019.049a2.405 2.405 0 0 1 .045-.097l.467-.809c.009-.014.017-.023.027-.025a.097.097 0 0 1 .038-.004h.138v1.316h-.164v-.968-.041-.045l-.47.821c-.006.012-.016.023-.028.03s-.026.011-.04.011h-.027c-.014 0-.028-.004-.04-.011s-.022-.018-.027-.03l-.484-.826v1.057h-.158v-1.314h.138a.12.12 0 0 1 .038.004c.011.005.02.014.026.025l.477.81a.416.416 0 0 1 .024.047zM30.68 23.171v.493h-.183v-1.315h.408a.797.797 0 0 1 .228.029.44.44 0 0 1 .161.082.33.33 0 0 1 .091.129.424.424 0 0 1 .031.168.373.373 0 0 1-.133.3.446.446 0 0 1-.162.087.684.684 0 0 1-.22.03l-.221-.003zm0-.141h.221a.456.456 0 0 0 .142-.02.277.277 0 0 0 .102-.057.232.232 0 0 0 .062-.087.282.282 0 0 0 .022-.111.244.244 0 0 0-.082-.197.371.371 0 0 0-.246-.071h-.221v.542zM33.138 23.666h-.145a.07.07 0 0 1-.04-.012.086.086 0 0 1-.024-.03l-.124-.318h-.625l-.129.318a.076.076 0 0 1-.023.03.061.061 0 0 1-.041.013h-.145l.549-1.317h.19l.556 1.317zm-.905-.489h.516l-.218-.536a.9.9 0 0 1-.041-.124l-.021.069c-.006.021-.014.04-.02.056l-.216.535zM33.928 22.356c.011.006.02.014.027.024l.8.992v-.046V22.35h.164v1.317h-.091c-.013 0-.026-.002-.037-.008s-.021-.015-.029-.024l-.799-.992v.045.978h-.164v-1.317h.097c.011 0 .023.002.033.006zM36.268 23.143v.523h-.183v-.523l-.506-.793h.164a.06.06 0 0 1 .039.011c.01.008.018.018.025.03l.316.512a.765.765 0 0 1 .056.117l.024-.057a.425.425 0 0 1 .031-.06l.312-.515a.127.127 0 0 1 .024-.028.056.056 0 0 1 .039-.013h.166l-.507.796zM28.831 20.14c.08.01.16.017.241.024 1.234-.526 2.278-1.387 3.001-2.475s1.094-2.355 1.066-3.643l-1.36-1.296c.276 1.371.147 2.788-.374 4.093s-1.412 2.446-2.575 3.296z"/><path fill="var(--color1, #afb1b8)" d="M28.345 20.08l.037.007c1.242-.847 2.19-2.029 2.719-3.394s.617-2.85.251-4.263l-1.937-1.845c.783 1.517 1.099 3.215.909 4.895s-.876 3.276-1.979 4.6zM34.914 15.568a6.683 6.683 0 0 1-2.279 3.639 7.271 7.271 0 0 1-1.083.741c.937-.262 1.798-.726 2.517-1.356s1.277-1.408 1.63-2.276l-.785-.748z"/><path fill="var(--color1, #afb1b8)" d="M34.606 15.36l-1.118-1.066c-.021 1.215-.384 2.402-1.05 3.438s-1.611 1.884-2.737 2.454h.006c.251 0 .502-.014.751-.043 1.052-.409 1.982-1.06 2.706-1.895s1.22-1.827 1.443-2.889zM28.507 9.806l-1.334-1.273c-1.193.439-2.219 1.211-2.943 2.215s-1.114 2.193-1.118 3.411c.004 1.346.48 2.653 1.352 3.712s2.089 1.812 3.46 2.139c1.224-1.421 1.94-3.176 2.045-5.011s-.407-3.654-1.461-5.193zM37.689 15.164c-.005-1.597-.673-3.128-1.858-4.257s-2.792-1.766-4.468-1.771a6.51 6.51 0 0 0-2.265.402l8.17 7.783a5.7 5.7 0 0 0 .422-2.157z"/></symbol><symbol id="client4" viewBox="0 0 60 32"><path fill="var(--color1, #afb1b8)" d="M20.41 13.095h-.001c-.804 0-1.456.635-1.456 1.419v.001c0 .784.652 1.419 1.456 1.419h.001c.804 0 1.456-.635 1.456-1.419v-.001c0-.784-.652-1.419-1.456-1.419zM31.16 12.642c-.002-1.089-.447-2.132-1.237-2.902s-1.861-1.204-2.978-1.206c-1.118.002-2.189.435-2.979 1.205s-1.235 1.814-1.238 2.903v6.004s8.43-.915 8.431-6.003v-.001zM16 20.616c.002.758.312 1.484.861 2.019s1.294.838 2.072.84c.777-.002 1.522-.304 2.071-.84s.859-1.261.862-2.019v-4.178S16 17.075 16 20.615zm2.933.748c-.152 0-.3-.044-.427-.126a.746.746 0 0 1-.327-.768c.03-.145.103-.279.21-.383a.778.778 0 0 1 1.182.114.73.73 0 0 1 .071.703.766.766 0 0 1-.711.464v-.003zM24.921 20.9h-.6v.62h-.313v-1.517h.988v.253h-.675v.392h.6v.252zm1.502-.104c0 .149-.026.28-.079.393s-.128.199-.227.26a.624.624 0 0 1-.337.092c-.126 0-.238-.03-.336-.091s-.175-.147-.229-.258a.889.889 0 0 1-.082-.388v-.075c0-.149.027-.281.08-.394a.595.595 0 0 1 .566-.353c.127 0 .239.031.336.092.099.06.175.148.228.261s.081.244.081.393v.068zm-.317-.069c0-.159-.028-.28-.085-.363s-.138-.124-.244-.124c-.105 0-.186.041-.243.123s-.086.201-.086.358v.074c0 .155.028.275.085.36s.139.128.246.128c.105 0 .185-.041.242-.123s.085-.203.085-.36v-.074zm1.33.395c0-.059-.021-.104-.063-.135s-.117-.065-.225-.1a1.588 1.588 0 0 1-.257-.104c-.172-.093-.258-.218-.258-.376 0-.082.023-.155.069-.219s.113-.115.199-.151c.087-.036.184-.054.292-.054s.205.02.29.059a.436.436 0 0 1 .268.41h-.313c0-.069-.022-.123-.066-.161s-.105-.058-.184-.058c-.076 0-.136.016-.178.049s-.064.074-.064.127c0 .049.025.091.074.124s.123.065.22.094c.178.053.307.12.389.199s.122.178.122.296c0 .131-.05.234-.149.309s-.233.111-.401.111c-.117 0-.223-.021-.319-.064s-.169-.102-.22-.176a.45.45 0 0 1-.075-.258h.314c0 .167.1.251.3.251.074 0 .132-.015.174-.045s.063-.073.063-.127zm1.668-.866h-.465v1.264h-.313v-1.264h-.458v-.253h1.235v.253zm1.092.607h-.6v.406h.704v.251h-1.017v-1.517h1.015v.253h-.702v.361h.6v.245zm.849.102h-.249v.555h-.313v-1.517h.564c.179 0 .317.04.415.12s.146.193.146.339c0 .103-.023.19-.068.259s-.112.124-.203.165l.328.62v.015h-.335l-.284-.555zm-.249-.254h.252c.078 0 .139-.02.182-.059s.065-.096.065-.166c0-.072-.02-.128-.061-.169s-.102-.061-.186-.061h-.251v.455zm1.893.274v.534h-.313v-1.517h.592c.114 0 .214.021.3.063a.469.469 0 0 1 .27.439c0 .149-.051.266-.153.352s-.242.128-.422.128h-.274zm0-.253h.279c.083 0 .145-.019.189-.058s.066-.094.066-.167c0-.074-.022-.134-.066-.18s-.104-.069-.181-.071h-.286v.476zm1.977.131h-.6v.406h.704v.251h-1.017v-1.517h1.015v.253h-.702v.361h.6v.245zm1.451-.607h-.465v1.264h-.313v-1.264h-.458v-.253h1.236v.253zm1.091.607h-.6v.406h.704v.251h-1.017v-1.517h1.014v.253h-.702v.361h.6v.245zm.849.102h-.249v.555h-.312v-1.517h.564c.179 0 .317.04.415.12s.146.193.146.339c0 .103-.023.19-.068.259s-.112.124-.203.165l.328.62v.015h-.336l-.284-.555zm-.249-.254h.252c.079 0 .139-.02.182-.059s.065-.096.065-.166c0-.072-.021-.128-.062-.169s-.102-.061-.186-.061h-.251v.455zm1.836.411c0-.059-.021-.104-.062-.135s-.117-.065-.225-.1a1.588 1.588 0 0 1-.257-.104c-.172-.093-.258-.218-.258-.376 0-.082.023-.155.069-.219s.113-.115.199-.151c.087-.036.184-.054.292-.054s.205.02.289.059a.436.436 0 0 1 .268.41h-.313c0-.069-.022-.123-.065-.161s-.105-.058-.185-.058c-.076 0-.136.016-.178.049s-.063.074-.063.127c0 .049.025.091.074.124s.123.065.22.094c.178.053.307.12.389.199s.122.178.122.296c0 .131-.049.234-.149.309s-.233.111-.401.111c-.117 0-.223-.021-.319-.064s-.169-.102-.22-.176a.45.45 0 0 1-.075-.258h.314c0 .167.1.251.3.251.074 0 .133-.015.174-.045s.062-.073.062-.127z"/></symbol><symbol id="client5" viewBox="0 0 60 32"><path fill="var(--color1, #afb1b8)" d="M21.507 21.788a.559.559 0 0 1 .123.359.576.576 0 0 1-.191.454.829.829 0 0 1-.554.166h-.974V20.49h.954a.814.814 0 0 1 .529.151.515.515 0 0 1 .185.426.526.526 0 0 1-.111.348.52.52 0 0 1-.29.178.555.555 0 0 1 .329.195zm-1.143-.344h.408a.381.381 0 0 0 .259-.076.274.274 0 0 0 .088-.223.277.277 0 0 0-.086-.223.4.4 0 0 0-.267-.077h-.401v.597zm.707.873a.286.286 0 0 0 .096-.231.284.284 0 0 0-.098-.233.418.418 0 0 0-.277-.082h-.428v.626h.433a.426.426 0 0 0 .274-.079zM23.457 22.767l-.531-.89h-.199v.89h-.456V20.49h.864a.85.85 0 0 1 .602.194.732.732 0 0 1 .064.942.699.699 0 0 1-.412.231l.565.91h-.496zm-.73-1.201h.373c.259 0 .389-.115.389-.345.003-.047-.004-.094-.021-.138s-.042-.084-.074-.118a.402.402 0 0 0-.294-.092h-.378l.004.693zM25.952 22.308h-.91l-.161.458h-.479l.835-2.252h.517l.832 2.252h-.479l-.157-.458zm-.122-.345l-.332-.961-.332.961h.665zM29.076 22.767h-.453l-1.016-1.549v1.549h-.452V20.49h.452l1.016 1.558V20.49h.453v2.277zM31.662 22.222a.98.98 0 0 1-.41.402 1.34 1.34 0 0 1-.637.144h-.807v-2.277h.807c.221-.006.439.042.637.14a.969.969 0 0 1 .41.397 1.331 1.331 0 0 1 0 1.194zm-.518-.055a.837.837 0 0 0 0-1.086.785.785 0 0 0-.567-.194h-.315v1.474h.315a.785.785 0 0 0 .567-.194zM26.236 7.822s5.849 2.217 5.725 5.426v5.427s-5.845-2.218-5.723-5.427l-.002-5.426zM37.172 17.404a8.001 8.001 0 0 1 3.717-1.375V14.33a7.635 7.635 0 0 0-3.717 3.074z"/><path fill="var(--color1, #afb1b8)" d="M36.509 17.916a7.959 7.959 0 0 1 4.38-3.942V9.079s-8.33 3.158-8.154 7.728v7.726s.371-.141.955-.406c0-.247 0-.496.027-.747a8.04 8.04 0 0 1 2.792-5.465z"/><path fill="var(--color1, #afb1b8)" d="M35.717 20.786a8.016 8.016 0 0 1 .291-1.582 7.481 7.481 0 0 0-1.764 4.667 24.023 24.023 0 0 0 1.602-.848 7.996 7.996 0 0 1-.129-2.237zM36.048 20.814a7.687 7.687 0 0 0 .103 2.026c2.276-1.367 4.833-3.48 4.735-6.033v-.223a7.458 7.458 0 0 0-4.33 2.031 7.618 7.618 0 0 0-.507 2.198z"/></symbol><symbol id="client6" viewBox="0 0 60 32"><path fill="var(--color1, #afb1b8)" d="M30.485 15.415a1.155 1.155 0 0 1-.203-.731v-1.06c0-.325.067-.572.202-.741s.365-.253.693-.252c.308 0 .526.072.655.216a.938.938 0 0 1 .194.634v.249h-.55v-.252a1.361 1.361 0 0 0-.016-.247.246.246 0 0 0-.079-.147.294.294 0 0 0-.199-.057.32.32 0 0 0-.21.06.285.285 0 0 0-.091.162 1.357 1.357 0 0 0-.022.262v1.287a.707.707 0 0 0 .071.361c.027.038.065.069.11.088s.094.026.142.02c.07.005.14-.015.195-.058a.262.262 0 0 0 .082-.156c.013-.085.019-.172.017-.258v-.261h.55v.238a1.04 1.04 0 0 1-.19.667c-.127.157-.342.236-.659.236s-.556-.084-.692-.259zM32.777 15.425c-.139-.165-.209-.406-.209-.724v-1.115c0-.315.069-.553.209-.715s.371-.242.697-.242c.324 0 .555.081.694.242s.21.4.21.715v1.116c0 .315-.071.557-.212.723s-.371.249-.692.249-.557-.084-.697-.248zm.954-.267a.674.674 0 0 0 .066-.33v-1.366a.664.664 0 0 0-.065-.324c-.028-.039-.067-.07-.112-.089s-.096-.026-.145-.019c-.049-.007-.1 0-.146.019s-.085.05-.113.089a.639.639 0 0 0-.066.324v1.372a.661.661 0 0 0 .066.33.34.34 0 0 0 .257.111.36.36 0 0 0 .257-.111v-.006zM35.04 12.662h.593l.446 2.058.456-2.058h.577l.058 2.971h-.426l-.045-2.065-.44 2.065h-.342l-.456-2.072-.042 2.072h-.431l.054-2.971zM37.833 12.662h.923c.532 0 .797.281.797.844 0 .539-.28.808-.84.807h-.314v1.32h-.57l.004-2.971zm.789 1.269a.41.41 0 0 0 .313-.093.518.518 0 0 0 .082-.335 1.024 1.024 0 0 0-.027-.27.231.231 0 0 0-.114-.142.54.54 0 0 0-.254-.047h-.221v.888h.221zM40.375 12.662h.612l.628 2.971h-.531l-.124-.685h-.546l-.128.685h-.539l.628-2.971zm.523 1.941l-.213-1.247-.213 1.247h.426zM42.122 12.662h.399l.763 1.695v-1.695h.473v2.971h-.379l-.768-1.769v1.769h-.489l.001-2.971zM44.865 14.5l-.635-1.834h.535l.387 1.178.364-1.178h.523l-.627 1.834v1.133h-.547V14.5zM31.365 16.931v.155H30.9v1.207h-.195v-1.207h-.467v-.155h1.127zM32.823 18.294h-.15a.064.064 0 0 1-.042-.013.075.075 0 0 1-.025-.031l-.134-.324h-.645l-.134.324a.102.102 0 0 1-.02.037.064.064 0 0 1-.042.013h-.15l.57-1.362h.198l.577 1.357zm-.944-.506h.538l-.228-.555a1.007 1.007 0 0 1-.042-.128l-.022.072-.02.057-.226.553zM33.805 18.16a.56.56 0 0 0 .198-.016.596.596 0 0 0 .082-.025l.076-.033v-.306h-.228c-.006 0-.011 0-.017-.002s-.01-.005-.014-.008-.007-.007-.009-.011-.003-.009-.003-.014v-.105h.442v.522c-.036.024-.074.046-.114.065s-.083.035-.126.046a.99.99 0 0 1-.142.028 1.539 1.539 0 0 1-.166.009.78.78 0 0 1-.287-.051.69.69 0 0 1-.228-.142.663.663 0 0 1-.199-.499.773.773 0 0 1 .051-.285.633.633 0 0 1 .375-.357.88.88 0 0 1 .305-.051c.053 0 .106.004.158.012a.715.715 0 0 1 .349.16l-.055.084c-.004.008-.011.014-.019.019s-.017.007-.026.007a.06.06 0 0 1-.035-.011.928.928 0 0 1-.056-.032.533.533 0 0 0-.181-.067.878.878 0 0 0-.145-.012.61.61 0 0 0-.22.038.467.467 0 0 0-.273.277.693.693 0 0 0 0 .454.502.502 0 0 0 .28.28.574.574 0 0 0 .226.027zM35.621 18.138h.622v.155h-.812V16.93h.195l-.005 1.207zM36.891 18.294h-.195v-1.363h.195v1.363zM37.616 16.938a.088.088 0 0 1 .029.025l.833 1.027a.4.4 0 0 1 0-.049v-1.015h.17v1.368h-.098a.085.085 0 0 1-.042-.008.13.13 0 0 1-.031-.026l-.832-1.026v1.059h-.163V16.93h.101c.011 0 .022.002.032.006zM40.083 16.931v.15h-.691v.45h.56v.145h-.56v.465h.691v.15h-.891v-1.359h.891zM19.663 8.517l8.652 2.326v8.15l-8.652-2.325V8.517zm-.555-.695v9.242l9.761 2.625v-9.241l-9.761-2.626z"/><path fill="var(--color1, #afb1b8)" d="M24.34 23.979l-9.762-2.627v-9.241l9.762 2.626v9.242z"/><path fill="var(--color1, #afb1b8)" d="M19.27 8.412l8.54 2.297-3.632 3.439-8.541-2.298 3.633-3.438zm-.162-.59l-4.531 4.289 9.762 2.626 4.53-4.289-9.761-2.626zM24.889 23.459l3.98-3.769-3.98-1.071v4.84z"/></symbol><symbol id="clok" viewBox="0 0 31 32"><path d="M30.84 15.301C30.838 6.849 23.985-.002 15.532 0S.229 6.855.231 15.308A15.304 15.304 0 0 0 10.88 29.884a.662.662 0 0 0 .529-.065.637.637 0 0 0 .283-.356l3.865-12.25a1.912 1.912 0 1 0-.84-3.635L9.611 8.471a.637.637 0 0 0-.902.902l5.103 5.109a1.876 1.876 0 0 0 .536 2.309l-3.683 11.673C3.387 25.783-.339 17.71 2.342 10.432S13.096-.572 20.374 2.109s11.004 10.754 8.323 18.032a14.042 14.042 0 0 1-7.462 7.973l-.398-1.874a.638.638 0 0 0-1.048-.344l-3.837 3.426a.637.637 0 0 0 .231 1.084l4.899 1.563a.638.638 0 0 0 .819-.74l-.391-1.839a15.255 15.255 0 0 0 9.329-14.089zm-15.305-.637a.638.638 0 1 1 0 1.277.638.638 0 0 1 0-1.277zm2.1 14.864l2.184-1.948.603 2.84-2.787-.892z"/></symbol><symbol id="cosmonaut" viewBox="0 0 32 32"><path d="M29.935 13.626a2.04 2.04 0 0 0-1.364-.809 2.04 2.04 0 0 0-1.537.404l-1.437 1.102-2.178 1.626-1.558-.621c2.779-1.247 4.721-4.026 4.721-7.253 0-4.387-3.583-7.956-7.988-7.956s-7.988 3.569-7.988 7.956c0 1.59.476 3.069 1.285 4.313l-3.172-.028h-.005c-.01 0-.018.005-.027.005a.576.576 0 0 0-.178.036c-.015.005-.03.009-.044.015l-.022.007-3.71 1.832-.001.001-2.173 1.045a.432.432 0 0 0-.072.04 2.044 2.044 0 0 0 .525 3.654 2.038 2.038 0 0 0 1.582-.147l1.593-.847 2.598-1.342 1.557-.009-6.245 6.215-.002.001-1.536 1.53c-.363.361-.562.84-.562 1.351s.2.991.562 1.353c.373.371.863.557 1.353.557s.98-.186 1.354-.557l1.508-1.502 1.998-1.491 1.034 1.029-2.022 2.013-.002.001-1.536 1.53c-.363.361-.562.84-.562 1.351s.2.991.562 1.353c.373.371.864.557 1.354.557s.981-.186 1.354-.557l3.995-3.978.001-.002 1.159-1.148-.004-.004c.007-.007.018-.01.025-.018l5.928-6.493 3.983.567a.611.611 0 0 0 .301-.038c.02-.007.038-.017.057-.027.022-.011.045-.017.066-.031l3.688-2.448c.013-.009.021-.024.034-.034.015-.012.033-.016.046-.029l1.459-1.367a2.041 2.041 0 0 0 .243-2.71zM4.019 17.769a.814.814 0 0 1-.641.059.819.819 0 0 1-.244-1.446l1.507-.725.515 1.506-1.138.605zm4.013-2.097l-1.777.918-.504-1.473 2.326-1.148-.045 1.703zm17.327-7.598a6.661 6.661 0 0 1-.687 2.937l-4.798-2.179a2.136 2.136 0 0 0-.905-1.593l1.68-5.577c2.729.868 4.71 3.413 4.71 6.412zm-13.528 0c0-3.712 3.034-6.732 6.764-6.732.29 0 .574.024.855.06l-1.643 5.455c-.022-.001-.043-.007-.065-.007-1.185 0-2.149.961-2.149 2.142s.964 2.142 2.149 2.142c.797 0 1.485-.44 1.857-1.084l4.432 2.014a6.761 6.761 0 0 1-5.436 2.743c-3.73 0-6.764-3.02-6.764-6.732zm6.835.918c0 .506-.415.918-.925.918s-.925-.412-.925-.918.415-.918.925-.918.925.412.925.918zM4.402 26.233a.698.698 0 0 1-.98.001.682.682 0 0 1 0-.968l1.104-1.1.977.973-1.1 1.096zm3.688 4.285a.698.698 0 0 1-.981.001.682.682 0 0 1 0-.968l1.105-1.1.977.973L8.09 30.52zm3.996-3.981l-.002.001-2.025 2.02-.977-.973 2.023-2.014v-.001l.002-.001a.598.598 0 0 0 .103-.155c.008-.016.023-.029.03-.046.019-.047.022-.098.029-.148.004-.028.016-.054.016-.083 0-.041-.015-.081-.023-.121-.007-.037-.007-.074-.021-.11a.596.596 0 0 0-.105-.158c-.012-.013-.016-.031-.029-.043h-.001l-.001-.002-1.844-1.836c-.02-.02-.045-.028-.067-.044a.596.596 0 0 0-.1-.066.522.522 0 0 0-.107-.037.587.587 0 0 0-.118-.023.585.585 0 0 0-.11.006.596.596 0 0 0-.119.023.533.533 0 0 0-.108.051c-.023.013-.048.017-.07.033l-2.035 1.519L5.393 23.3l2.753-2.738 5.004 4.921-1.064 1.055zm7.824-8.052c-.018-.002-.034.004-.052.003a.65.65 0 0 0-.233.032.646.646 0 0 0-.206.124c-.015.013-.032.019-.046.034l-5.391 5.905-4.967-4.885 3.251-3.234a.613.613 0 0 0-.436-1.045v-.001l-2.546.015.032-1.845 3.562.031a7.973 7.973 0 0 0 5.716 2.411c.502 0 .992-.052 1.468-.141.046.037.091.074.149.097l2.765 1.102.175.87.204 1.016-3.446-.49zm4.638.205l-.359-1.788 1.66-1.239 1.086 1.442-2.387 1.585zm4.307-3.249l-.962.901-1.069-1.419.954-.731a.84.84 0 0 1 .623-.164.82.82 0 0 1 .453 1.413z"/></symbol><symbol id="facebook" viewBox="0 0 32 32"><path fill="var(--color3, #fff)" d="M32 16c0 4.418-1.791 8.418-4.686 11.314S20.419 32 16 32s-8.418-1.791-11.314-4.686C1.791 24.419 0 20.419 0 16S1.791 7.582 4.686 4.686 11.581 0 16 0c4.418 0 8.418 1.791 11.314 4.686S32 11.581 32 16z"/><path fill="var(--color1, #afb1b8)" d="M23.273 11.49a6.248 6.248 0 0 1-1.718.471 2.967 2.967 0 0 0 1.312-1.648 5.963 5.963 0 0 1-1.891.722 2.981 2.981 0 0 0-5.158 2.039c0 .236.02.464.069.68a8.439 8.439 0 0 1-6.146-3.119 2.985 2.985 0 0 0 .917 3.985 2.943 2.943 0 0 1-1.347-.367v.033a2.996 2.996 0 0 0 2.389 2.93 2.992 2.992 0 0 1-.782.098 2.64 2.64 0 0 1-.565-.051 3.01 3.01 0 0 0 2.786 2.077 5.991 5.991 0 0 1-3.697 1.272 5.59 5.59 0 0 1-.714-.041 8.393 8.393 0 0 0 4.575 1.338c5.487 0 8.487-4.545 8.487-8.485 0-.132-.005-.259-.011-.385a5.95 5.95 0 0 0 1.495-1.548z"/></symbol><symbol id="instagram" viewBox="0 0 32 32"><path fill="var(--color3, #fff)" d="M32 16c0 4.418-1.791 8.418-4.686 11.314S20.419 32 16 32s-8.418-1.791-11.314-4.686C1.791 24.419 0 20.419 0 16S1.791 7.582 4.686 4.686 11.581 0 16 0c4.418 0 8.418 1.791 11.314 4.686S32 11.581 32 16z"/><path fill="var(--color1, #afb1b8)" d="M23.269 23.273v-.001h.004v-5.335c0-2.61-.562-4.62-3.613-4.62-1.467 0-2.451.805-2.853 1.568h-.042v-1.324h-2.893v9.711h3.012v-4.809c0-1.266.24-2.49 1.808-2.49 1.545 0 1.568 1.445 1.568 2.572v4.728h3.009zM8.967 13.562h3.016v9.711H8.967v-9.711zM10.474 8.727c-.964 0-1.747.782-1.747 1.747s.782 1.763 1.747 1.763c.964 0 1.747-.799 1.747-1.763s-.783-1.747-1.747-1.747z"/></symbol><symbol id="linkedIn" viewBox="0 0 32 32"><path fill="var(--color3, #fff)" d="M32 16c0 4.418-1.791 8.418-4.686 11.314S20.419 32 16 32s-8.418-1.791-11.314-4.686C1.791 24.419 0 20.419 0 16S1.791 7.582 4.686 4.686 11.581 0 16 0c4.418 0 8.418 1.791 11.314 4.686S32 11.581 32 16z"/><path fill="var(--color1, #afb1b8)" d="M23.258 13.004c-.034-.773-.159-1.304-.338-1.765a3.557 3.557 0 0 0-.841-1.29 3.589 3.589 0 0 0-1.287-.838c-.463-.179-.992-.304-1.764-.338-.779-.037-1.026-.046-3.001-.046s-2.222.009-2.998.043c-.773.034-1.304.159-1.764.338a3.557 3.557 0 0 0-1.29.841 3.589 3.589 0 0 0-.838 1.287c-.179.463-.304.992-.338 1.764-.037.779-.045 1.026-.045 3.001s.008 2.222.043 2.998c.034.773.159 1.304.338 1.765.185.489.472.926.841 1.29.364.369.804.656 1.287.838.463.179.992.304 1.765.338.776.034 1.023.043 2.998.043s2.222-.008 2.998-.043c.773-.034 1.304-.159 1.764-.338a3.72 3.72 0 0 0 2.128-2.128c.179-.463.304-.992.338-1.765.034-.776.043-1.023.043-2.998s-.003-2.222-.037-2.998zm-1.309 5.938c-.031.71-.151 1.094-.25 1.35a2.409 2.409 0 0 1-1.381 1.381c-.256.099-.642.219-1.35.25-.767.034-.997.043-2.938.043s-2.174-.008-2.938-.043c-.71-.031-1.094-.15-1.35-.25a2.228 2.228 0 0 1-.835-.543 2.264 2.264 0 0 1-.543-.835c-.099-.256-.219-.642-.25-1.35-.034-.767-.043-.997-.043-2.938s.008-2.174.043-2.938c.031-.71.151-1.094.25-1.35.117-.315.301-.602.546-.835.236-.242.52-.426.835-.543.256-.099.642-.219 1.35-.25.767-.034.997-.043 2.938-.043 1.944 0 2.174.008 2.938.043.71.031 1.094.151 1.35.25.315.116.602.301.835.543.241.236.426.52.543.835.099.256.219.642.25 1.35.034.767.043.997.043 2.938s-.009 2.168-.043 2.935z"/><path fill="var(--color1, #afb1b8)" d="M16.027 12.265a3.737 3.737 0 0 0 0 7.472c2.063 0 3.737-1.674 3.737-3.736s-1.674-3.736-3.737-3.736zm0 6.16a2.424 2.424 0 1 1 0-4.849 2.424 2.424 0 0 1 0 4.849zM20.784 12.117a.872.872 0 1 1-1.744 0 .872.872 0 0 1 1.744 0z"/></symbol><symbol id="email" viewBox="0 0 43 32"><path fill="var(--color1, #757575)" d="M38.667 0H4C1.794 0 0 1.675 0 3.734v22.404c0 2.059 1.794 3.734 4 3.734h34.667c2.206 0 4-1.675 4-3.734V3.734c0-2.059-1.794-3.734-4-3.734zm0 2.489c.181 0 .353.035.511.096L21.334 17.022 3.49 2.585c.158-.061.33-.096.511-.096h34.667zm0 24.894H4c-.736 0-1.333-.558-1.333-1.245V5.216L20.46 19.611c.251.203.563.304.874.304s.622-.101.874-.304L40.001 5.216v20.922c0 .687-.598 1.245-1.333 1.245z"/></symbol><symbol id="tel" viewBox="0 0 21 32"><path fill="var(--color1, #757575)" d="M18.133 0H3.2C1.435 0 0 1.34 0 2.987v25.889c0 1.647 1.435 2.987 3.2 2.987h14.933c1.765 0 3.2-1.34 3.2-2.987V2.987c0-1.647-1.435-2.987-3.2-2.987zM3.2 1.991h14.933c.589 0 1.067.446 1.067.996v20.91H2.133V2.987c0-.549.478-.996 1.067-.996zm14.933 27.881H3.2c-.589 0-1.067-.446-1.067-.996v-2.987H19.2v2.987c0 .55-.478.996-1.067.996z"/><path fill="var(--color1, #757575)" d="M5.021 27.176c.417.389.417 1.02 0 1.409s-1.092.389-1.508 0c-.417-.389-.417-1.02 0-1.409s1.092-.389 1.508 0z"/></symbol><symbol id="satelite" viewBox="0 0 30 32"><path d="M29.859 22.098l-8.443-8.505.937-4.615c.242.094.499.144.758.146h.006a2.159 2.159 0 1 0-2.008-1.435l-4.96.605L8.058.161a.534.534 0 0 0-.377-.16.532.532 0 0 0-.373.155L5.795 1.66a.534.534 0 0 0 0 .754l.814.826a14.943 14.943 0 0 0 2.519 17.663.513.513 0 0 0 .146.098c-.034.18-.051.364-.052.547v6.187h-6.4a2.67 2.67 0 0 0-2.667 2.667v1.067c0 .295.239.533.533.533h24.533a.533.533 0 0 0 .533-.533v-1.067a2.67 2.67 0 0 0-2.667-2.667h-6.4v-2.742a15.09 15.09 0 0 0 3.049.32 14.854 14.854 0 0 0 7.04-1.783l.818.823a.534.534 0 0 0 .377.16.532.532 0 0 0 .373-.155l1.513-1.504a.534.534 0 0 0 0-.754zM22.366 6.233a1.066 1.066 0 1 1 .752 1.822h-.003a1.067 1.067 0 0 1-.747-1.823h-.002zM21.11 9.738l-.598 2.946-1.175-1.182 1.774-1.763zm-.606-.902l-1.92 1.909-1.485-1.493 3.405-.415zM23.09 28.8a1.6 1.6 0 0 1 1.6 1.6v.533H1.223V30.4a1.6 1.6 0 0 1 1.6-1.6H23.09zm-7.467-2.133v1.067H10.29v-1.067h5.333zM10.29 25.6v-4.053c0-1.294 1.196-2.347 2.667-2.347s2.667 1.053 2.667 2.347V25.6h-5.333zm6.4-1.696v-2.357c0-1.882-1.675-3.413-3.733-3.413a3.8 3.8 0 0 0-3.281 1.786A13.87 13.87 0 0 1 7.397 4.033l18.602 18.708a13.818 13.818 0 0 1-9.309 1.163zm11.289-.684L6.922 2.039l.755-.752 7.935 7.98c.004 0 .006.007.01.01l13.115 13.191-.757.752z"/></symbol><symbol id="send" viewBox="0 0 32 32"><path fill="var(--color3, #fff)" d="M32 0L0 18l10.227 3.788L26 7 14.002 23.186l.01.004-.012-.004V32l5.735-6.691L27 28l5-28z"/></symbol><symbol id="twitter" viewBox="0 0 32 32"><path fill="var(--color3, #fff)" d="M32 16c0 4.418-1.791 8.418-4.686 11.314S20.419 32 16 32s-8.418-1.791-11.314-4.686C1.791 24.419 0 20.419 0 16S1.791 7.582 4.686 4.686 11.581 0 16 0c4.418 0 8.418 1.791 11.314 4.686S32 11.581 32 16z"/><path fill="var(--color1, #afb1b8)" d="M18.422 11.142h1.328V8.829a17.317 17.317 0 0 0-1.935-.102c-1.915 0-3.226 1.204-3.226 3.418v2.037h-2.113v2.585h2.113v6.505h2.59v-6.505h2.027l.322-2.585h-2.35v-1.781c.001-.747.202-1.259 1.243-1.259z"/></symbol><symbol id="plan" viewBox="0 0 32 32"><path fill="var(--color2, #2196f3)" d="M14.925 14.965h1.066v4.798h-1.066v-4.797zM19.19 17.097h1.066v2.665H19.19v-2.665zM10.661 18.696h1.066v1.066h-1.066v-1.066zM7.463 18.163h1.066v1.599H7.463v-1.599z"/><path fill="var(--color1, #212121)" d="M1.599 28.291h25.587a1.6 1.6 0 0 0 1.599-1.599V24.56a1.6 1.6 0 0 0-1.599-1.599h-.533V9.668L29.681 6.8a1.608 1.608 0 1 0-.746-.763L26.654 8.2V6.97a1.6 1.6 0 0 0-1.599-1.599H3.733A1.6 1.6 0 0 0 2.134 6.97v15.992h-.533a1.6 1.6 0 0 0-1.599 1.599v2.132a1.6 1.6 0 0 0 1.599 1.599zM30.384 4.837a.533.533 0 1 1 0 1.067.533.533 0 0 1 0-1.067zM3.198 6.969c0-.294.239-.533.533-.533h21.322c.294 0 .533.239.533.533v2.239l-1.066 1.013V8.035a.533.533 0 0 0-.533-.533H4.797a.533.533 0 0 0-.533.533v13.326c0 .294.239.533.533.533h19.19a.533.533 0 0 0 .533-.533v-9.674l1.066-1.01v12.284H3.198V6.969zm4.798 6.929a1.598 1.598 0 1 0 1.107 2.749l1.853.93a.532.532 0 0 0 .636-.123l3.939-4.431 3.872 2.901a.533.533 0 0 0 .686-.039l3.365-3.188v8.131H5.33V8.568h18.124v2.66L19.683 14.8l-3.904-2.927a.533.533 0 0 0-.718.072l-3.993 4.493-1.493-.746c.011-.064.018-.129.02-.193A1.6 1.6 0 0 0 7.996 13.9zm.533 1.6a.533.533 0 1 1-1.067 0 .533.533 0 0 1 1.067 0zm3.198 8.528h5.331v.533a.533.533 0 0 1-.533.533h-4.264a.533.533 0 0 1-.533-.533v-.533zm-10.661.534c0-.294.239-.533.533-.533h9.062v.533a1.6 1.6 0 0 0 1.599 1.599h4.264a1.6 1.6 0 0 0 1.599-1.599v-.533h9.062c.294 0 .533.239.533.533v2.132a.533.533 0 0 1-.533.533H1.598a.533.533 0 0 1-.533-.533V24.56z"/></symbol></defs></svg>