<svg width="142" height="16" viewBox="0 0 142 16" fill="none" xmlns="http://www.w3.org/2000/svg">
<path d="M24.6895 7.52441H27.2871V9.04199H24.6895V12.002H23.0762V9.04199H20.4648V7.52441H23.0762V4.75586H24.6895V7.52441ZM30.7527 7.26465H31.7644C32.2748 7.26009 32.6781 7.12793 32.9743 6.86816C33.2751 6.6084 33.4255 6.23242 33.4255 5.74023C33.4255 5.26628 33.3002 4.89941 33.0495 4.63965C32.8034 4.37533 32.4252 4.24316 31.9148 4.24316C31.4682 4.24316 31.1013 4.37305 30.8142 4.63281C30.5271 4.88802 30.3835 5.22298 30.3835 5.6377H28.7224C28.7224 5.12728 28.8568 4.66243 29.1257 4.24316C29.3991 3.82389 29.7774 3.49805 30.2605 3.26562C30.7481 3.02865 31.2927 2.91016 31.8943 2.91016C32.8877 2.91016 33.667 3.16081 34.2321 3.66211C34.8018 4.15885 35.0866 4.85156 35.0866 5.74023C35.0866 6.18685 34.9431 6.6084 34.656 7.00488C34.3734 7.39681 34.0066 7.69303 33.5554 7.89355C34.1023 8.0804 34.517 8.37435 34.7995 8.77539C35.0866 9.17643 35.2302 9.65495 35.2302 10.2109C35.2302 11.1042 34.9226 11.8151 34.3073 12.3438C33.6967 12.8724 32.8923 13.1367 31.8943 13.1367C30.9372 13.1367 30.1534 12.8815 29.5427 12.3711C28.932 11.8607 28.6267 11.1816 28.6267 10.334H30.2878C30.2878 10.7715 30.4336 11.127 30.7253 11.4004C31.0215 11.6738 31.418 11.8105 31.9148 11.8105C32.4297 11.8105 32.8353 11.6738 33.1316 11.4004C33.4278 11.127 33.5759 10.7305 33.5759 10.2109C33.5759 9.68685 33.421 9.28353 33.1111 9.00098C32.8012 8.71842 32.3409 8.57715 31.7302 8.57715H30.7527V7.26465ZM43.3373 5.67188C43.3373 6.15951 43.212 6.59473 42.9614 6.97754C42.7107 7.35579 42.3689 7.6543 41.936 7.87305C42.4555 8.11458 42.8543 8.44499 43.1323 8.86426C43.4148 9.28353 43.5561 9.75749 43.5561 10.2861C43.5561 11.1611 43.2599 11.8561 42.6674 12.3711C42.075 12.8815 41.2866 13.1367 40.3022 13.1367C39.3133 13.1367 38.5203 12.8792 37.9233 12.3643C37.3308 11.8493 37.0346 11.1566 37.0346 10.2861C37.0346 9.75293 37.1759 9.27441 37.4584 8.85059C37.741 8.42676 38.1375 8.10091 38.6479 7.87305C38.2195 7.6543 37.88 7.35579 37.6293 6.97754C37.3832 6.59473 37.2602 6.15951 37.2602 5.67188C37.2602 4.82422 37.5336 4.15202 38.0805 3.65527C38.6274 3.15853 39.3657 2.91016 40.2954 2.91016C41.2296 2.91016 41.9702 3.15853 42.517 3.65527C43.0639 4.15202 43.3373 4.82422 43.3373 5.67188ZM41.895 10.2041C41.895 9.71191 41.7468 9.31543 41.4506 9.01465C41.159 8.70931 40.7716 8.55664 40.2885 8.55664C39.8054 8.55664 39.4181 8.70703 39.1264 9.00781C38.8393 9.30859 38.6957 9.70736 38.6957 10.2041C38.6957 10.6917 38.837 11.0814 39.1196 11.373C39.4067 11.6647 39.8009 11.8105 40.3022 11.8105C40.8035 11.8105 41.1931 11.6693 41.4711 11.3867C41.7537 11.1042 41.895 10.71 41.895 10.2041ZM41.683 5.7334C41.683 5.30046 41.5577 4.94499 41.3071 4.66699C41.0564 4.38444 40.7192 4.24316 40.2954 4.24316C39.8715 4.24316 39.5366 4.3776 39.2905 4.64648C39.0444 4.91081 38.9213 5.27311 38.9213 5.7334C38.9213 6.18913 39.0444 6.55143 39.2905 6.82031C39.5411 7.08919 39.8784 7.22363 40.3022 7.22363C40.726 7.22363 41.061 7.08919 41.3071 6.82031C41.5577 6.55143 41.683 6.18913 41.683 5.7334ZM55.5595 8.80957C55.5595 10.2406 55.2906 11.3206 54.7528 12.0498C54.2196 12.7744 53.4061 13.1367 52.3124 13.1367C51.2369 13.1367 50.4257 12.7835 49.8788 12.0771C49.3365 11.3662 49.0585 10.3158 49.0448 8.92578V7.20312C49.0448 5.77214 49.3114 4.69889 49.8446 3.9834C50.3824 3.2679 51.2004 2.91016 52.2987 2.91016C53.3879 2.91016 54.1991 3.25879 54.7323 3.95605C55.2701 4.65332 55.5458 5.69694 55.5595 7.08691V8.80957ZM53.8983 6.9502C53.8983 6.01595 53.7707 5.33236 53.5155 4.89941C53.2603 4.46191 52.8547 4.24316 52.2987 4.24316C51.7564 4.24316 51.3576 4.45052 51.1024 4.86523C50.8472 5.27539 50.7128 5.91797 50.6991 6.79297V9.04883C50.6991 9.97852 50.829 10.6712 51.0888 11.127C51.3485 11.5827 51.7564 11.8105 52.3124 11.8105C52.8456 11.8105 53.2398 11.6009 53.495 11.1816C53.7502 10.7578 53.8846 10.097 53.8983 9.19922V6.9502ZM62.0191 8.83691C61.4632 9.4248 60.8137 9.71875 60.0709 9.71875C59.1959 9.71875 58.4986 9.41341 57.9791 8.80273C57.4596 8.1875 57.1998 7.38086 57.1998 6.38281C57.1998 5.72656 57.332 5.13184 57.5963 4.59863C57.8606 4.06543 58.2366 3.65072 58.7242 3.35449C59.2119 3.05827 59.777 2.91016 60.4195 2.91016C61.4221 2.91016 62.2174 3.28385 62.8053 4.03125C63.3932 4.77865 63.6871 5.77897 63.6871 7.03223V7.49707C63.6871 9.29264 63.2815 10.6621 62.4703 11.6055C61.6591 12.5488 60.4492 13.0273 58.8404 13.041H58.6422V11.667H58.8814C59.8613 11.6533 60.6132 11.4186 61.1373 10.9629C61.6614 10.5026 61.9553 9.79395 62.0191 8.83691ZM60.4195 8.41992C60.7522 8.41992 61.0644 8.32422 61.3561 8.13281C61.6477 7.94141 61.8733 7.67708 62.0328 7.33984V6.69043C62.0328 5.95671 61.8824 5.36654 61.5816 4.91992C61.2809 4.47331 60.8912 4.25 60.4127 4.25C59.9342 4.25 59.5514 4.44824 59.2643 4.84473C58.9817 5.23665 58.8404 5.7334 58.8404 6.33496C58.8404 6.95931 58.984 7.46289 59.2711 7.8457C59.5582 8.22852 59.941 8.41992 60.4195 8.41992ZM70.7142 2.99902V4.37305H70.5091C69.5794 4.38672 68.8366 4.64193 68.2806 5.13867C67.7246 5.63542 67.3942 6.33952 67.2894 7.25098C67.8226 6.69043 68.5039 6.41016 69.3333 6.41016C70.2129 6.41016 70.9056 6.72005 71.4114 7.33984C71.9219 7.95964 72.1771 8.75944 72.1771 9.73926C72.1771 10.751 71.8786 11.5713 71.2816 12.2002C70.6891 12.8245 69.9098 13.1367 68.9437 13.1367C67.9502 13.1367 67.1435 12.7699 66.5238 12.0361C65.9085 11.3024 65.6009 10.3408 65.6009 9.15137V8.58398C65.6009 6.83854 66.0247 5.47135 66.8724 4.48242C67.7246 3.49349 68.9482 2.99902 70.5433 2.99902H70.7142ZM68.93 7.75C68.5654 7.75 68.2305 7.85254 67.9251 8.05762C67.6243 8.2627 67.4033 8.53613 67.262 8.87793V9.38379C67.262 10.1221 67.417 10.71 67.7269 11.1475C68.0368 11.5804 68.4378 11.7969 68.93 11.7969C69.4222 11.7969 69.8118 11.6123 70.0989 11.2432C70.3861 10.874 70.5296 10.3887 70.5296 9.78711C70.5296 9.18555 70.3838 8.69564 70.0921 8.31738C69.8004 7.93913 69.4131 7.75 68.93 7.75ZM82.0476 13H80.3933V5.00879L77.9529 5.84277V4.44141L81.8357 3.0127H82.0476V13ZM90.2846 13H88.6303V5.00879L86.1899 5.84277V4.44141L90.0727 3.0127H90.2846V13ZM98.5217 13H96.8674V5.00879L94.427 5.84277V4.44141L98.3098 3.0127H98.5217V13ZM110.525 13H108.871V5.00879L106.43 5.84277V4.44141L110.313 3.0127H110.525V13ZM118.762 13H117.108V5.00879L114.667 5.84277V4.44141L118.55 3.0127H118.762V13ZM130.765 13H129.111V5.00879L126.671 5.84277V4.44141L130.554 3.0127H130.765V13ZM139.002 13H137.348V5.00879L134.908 5.84277V4.44141L138.791 3.0127H139.002V13Z" fill="#757575"/>
<path d="M8.5 1H1.5C0.672848 1 0 1.6281 0 2.40025V14.5357C0 15.3079 0.672848 15.936 1.5 15.936H8.5C9.32715 15.936 10 15.3079 10 14.5357V2.40025C10 1.6281 9.32715 1 8.5 1ZM1.5 1.9335H8.5C8.77588 1.9335 9 2.14271 9 2.40025V12.202H1V2.40025C1 2.14271 1.22412 1.9335 1.5 1.9335ZM8.5 15.0025H1.5C1.22412 15.0025 1 14.7933 1 14.5357V13.1355H9V14.5357C9 14.7933 8.77588 15.0025 8.5 15.0025Z" fill="#757575"/>
<path d="M2.35355 13.7389C2.54882 13.9213 2.54882 14.2169 2.35355 14.3992C2.15828 14.5816 1.84172 14.5816 1.64645 14.3992C1.45118 14.2169 1.45118 13.9213 1.64645 13.7389C1.84172 13.5566 2.15828 13.5566 2.35355 13.7389Z" fill="#757575"/>
</svg>
